<svg width="143" height="137" viewBox="0 0 143 137" fill="none" xmlns="http://www.w3.org/2000/svg">
<path d="M122.798 25.3883L122.138 24.2867C116.567 14.9892 106.496 9.38607 95.8787 10.0635C94.5112 10.151 93.1516 10.3404 91.8109 10.6302C82.1566 12.7226 73.7586 20.127 70.2771 29.5859C68.2278 35.1574 67.6568 41.5678 63.771 45.9902C58.7124 51.7421 50.1261 51.9226 42.5768 51.6883C35.0274 51.4541 26.4349 51.6535 21.4041 57.4276C18.2498 61.0459 17.2498 66.1901 17.5029 71.0398C18.1757 83.8669 26.9997 95.336 38.2219 101.034C49.444 106.732 62.6568 107.245 74.9499 104.738C92.1535 101.227 108.518 91.5784 118.351 76.6778C128.184 61.7772 130.665 41.4697 122.798 25.3883Z" fill="#F6F7FB"/>
<path d="M52.3051 40.7638L51.2341 43.4102C51.483 44.0123 51.6702 44.6393 51.7927 45.2811C51.8452 45.8921 51.3606 48.491 51.3606 48.491C51.2119 48.4993 51.0649 48.4543 50.945 48.3636C50.825 48.2729 50.7396 48.1423 50.7032 47.994C50.7003 47.4847 50.7333 46.9758 50.802 46.4714C50.736 46.3837 50.6493 46.3146 50.5501 46.2708C50.4509 46.227 50.3425 46.2098 50.235 46.2209C50.1275 46.2319 50.0245 46.2709 49.9358 46.3342C49.8471 46.3974 49.7756 46.4827 49.7279 46.5822C49.4193 47.2153 49.0675 47.9624 49.0057 48.0479C48.944 48.1333 49.0489 49.0989 49.1477 49.808C49.1634 49.9034 49.1478 50.0016 49.1032 50.087C49.0587 50.1724 48.9877 50.2401 48.9015 50.2796C48.8152 50.3191 48.7187 50.3281 48.6269 50.3052C48.5352 50.2823 48.4535 50.2288 48.3946 50.153C48.3686 50.1217 48.3524 50.0831 48.3483 50.0422C48.3483 50.0422 47.944 50.65 47.5459 49.5325C47.5459 49.5325 46.7434 49.1147 46.7249 48.4309C46.7249 48.4309 45.9934 47.5888 45.8946 47.0855C45.7959 46.5822 47.4718 43.54 47.4718 43.54L49.5335 39.1714L52.3051 40.7638Z" fill="#FFBE9D"/>
<path d="M48.7156 46.2054C48.57 46.3437 48.4471 46.5051 48.3514 46.6835C48.0732 47.0905 47.8924 47.559 47.8236 48.051C47.7953 48.5489 47.892 49.0459 48.1045 49.4945C48.1701 49.6859 48.2649 49.8655 48.3854 50.0264C48.3426 49.8299 48.2816 49.638 48.2033 49.4534C48.03 49.0136 47.9521 48.5405 47.9749 48.0668C48.0462 47.5978 48.2055 47.1473 48.444 46.7404C48.5526 46.5724 48.6437 46.3931 48.7156 46.2054Z" fill="#EB996E"/>
<path d="M47.8977 46.0187C47.8823 46.0187 47.7218 46.1485 47.5428 46.4397C47.4379 46.61 47.3451 46.7877 47.265 46.9715C47.1583 47.2006 47.0974 47.4492 47.086 47.7028C47.0979 47.9503 47.1373 48.1956 47.2033 48.4341C47.2558 48.6335 47.3051 48.8266 47.3514 49.0102C47.3877 49.1878 47.448 49.3593 47.5304 49.5199C47.5303 49.3349 47.5065 49.1508 47.4595 48.9722C47.4317 48.8076 47.3916 48.6082 47.3453 48.3897C47.2887 48.1594 47.2535 47.9241 47.2403 47.687C47.2539 47.4545 47.3072 47.2263 47.3977 47.0127C47.478 46.8101 47.5644 46.6296 47.6385 46.4809C47.7866 46.1991 47.9132 46.0377 47.8977 46.0187Z" fill="#EB996E"/>
<path d="M46.9378 45.8857C46.8823 45.8573 46.6292 46.4176 46.3761 47.114C46.3398 47.2152 46.3302 47.3244 46.3483 47.4306C46.3483 47.5224 46.373 47.6078 46.3885 47.6902C46.4188 47.834 46.4611 47.9748 46.515 48.1112C46.6076 48.3423 46.7095 48.4657 46.7249 48.4531C46.7007 48.3232 46.6645 48.196 46.6169 48.0732C46.5795 47.9379 46.5496 47.8005 46.5274 47.6617C46.5274 47.5857 46.5027 47.5034 46.4965 47.4179C46.4859 47.3392 46.4933 47.259 46.5181 47.1836C46.6508 46.8323 46.7558 46.5157 46.8267 46.2814C46.8791 46.1546 46.9164 46.0217 46.9378 45.8857Z" fill="#EB996E"/>
<path d="M95.6288 34.29L96.7059 33.1631C96.7781 33.0693 96.8776 33.0016 96.9899 32.97C97.1936 32.9351 97.3695 33.1472 97.3787 33.3562C97.3697 33.5676 97.2951 33.7706 97.1658 33.9355C97.0389 34.0996 96.9474 34.2895 96.8973 34.4926" fill="#FFBE9D"/>
<path d="M106.089 24.8691L100.4 34.9991L89.7615 35.0783C89.7494 34.8268 89.8325 34.5802 89.9936 34.3902C90.1547 34.2002 90.3812 34.0815 90.6257 34.0589L99.9343 33.8658L104.771 25.3598C105.11 24.7615 105.456 24.6349 106.089 24.8755V24.8691Z" fill="#263238"/>
<path d="M96.5454 35.0182C96.5979 35.0182 93.1844 35.0182 93.3757 35.072C93.3942 35.11 93.4097 35.148 93.4251 35.186L93.8695 37.1866C94.638 37.1866 96.851 36.5883 96.851 36.5883C97.2431 36.3529 97.6032 36.0656 97.922 35.7336V35.0118L96.5454 35.0182Z" fill="#FFBE9D"/>
<path d="M93.5362 35.0276L85.4437 34.6826L81.703 25.6352L77.7277 31.4758L80.9283 37.3797C81.2989 38.0621 81.8474 38.6253 82.5125 39.006C83.1775 39.3868 83.9328 39.5701 84.6937 39.5355L94.1257 38.4275L93.5362 35.0276Z" fill="#FFDC64"/>
<path d="M94.7769 77.2824L95.3942 83.123C95.3942 83.123 101.332 84.0252 101.542 85.0825L90.6103 87.1497L89.2739 78.0896L94.7769 77.2824Z" fill="#FFDC64"/>
<g opacity="0.6">
<path d="M91.9312 83.1452C91.8303 83.1936 91.7503 83.2785 91.7065 83.3836C91.6627 83.4887 91.6581 83.6066 91.6936 83.715C91.7374 83.8208 91.8191 83.9053 91.9219 83.9513C92.0246 83.9972 92.1407 84.001 92.2461 83.9619C92.3529 83.9095 92.4371 83.8185 92.4827 83.7064C92.5282 83.5942 92.5319 83.4688 92.493 83.3541C92.4361 83.2487 92.3417 83.17 92.2294 83.1346C92.1172 83.0992 91.9959 83.1098 91.8911 83.1641" fill="white"/>
</g>
<g opacity="0.6">
<path d="M90.6195 87.1496L90.4837 86.2379L101.107 84.6171C101.23 84.6554 101.341 84.7244 101.431 84.8178C101.521 84.9112 101.587 85.0261 101.623 85.1521L90.6195 87.1496Z" fill="white"/>
</g>
<path d="M95.5732 83.0407C95.5732 83.0945 95.3139 83.161 95.0732 83.3763C94.8325 83.5915 94.7275 83.8448 94.6751 83.8321C94.6226 83.8194 94.6565 83.487 94.9498 83.2306C95.243 82.9742 95.5763 82.9869 95.5732 83.0407Z" fill="#263238"/>
<path d="M96.7954 83.3572C96.8139 83.4079 96.5948 83.5377 96.4467 83.7973C96.2985 84.0568 96.28 84.3101 96.2244 84.3164C96.1689 84.3227 96.0948 84.0157 96.2862 83.6833C96.4775 83.3509 96.7862 83.3034 96.7954 83.3572Z" fill="#263238"/>
<path d="M97.6534 84.6741C97.604 84.6931 97.4899 84.4304 97.5855 84.1075C97.6812 83.7846 97.9158 83.6263 97.9436 83.6707C97.9713 83.715 97.8417 83.8954 97.7676 84.1613C97.6936 84.4272 97.7059 84.6583 97.6534 84.6741Z" fill="#263238"/>
<path d="M95.2862 81.7238C95.2707 81.7776 95.0146 81.7238 94.7121 81.8061C94.4096 81.8884 94.1905 82.0055 94.1535 81.9643C94.1164 81.9232 94.3201 81.6889 94.6751 81.6161C95.03 81.5433 95.3047 81.6763 95.2862 81.7238Z" fill="#263238"/>
<g opacity="0.3">
<path d="M94.9004 78.441L95.0115 79.4793L89.601 80.2391L89.4344 79.1469L94.9004 78.441Z" fill="black"/>
</g>
<path d="M95.138 80.543C94.9652 80.6198 94.7754 80.6471 94.5886 80.6221C94.3799 80.616 94.1726 80.5841 93.9713 80.5272C93.8551 80.4943 93.7415 80.452 93.6318 80.4005C93.565 80.3749 93.5025 80.3386 93.4467 80.2929C93.4056 80.2596 93.3766 80.2131 93.3643 80.1609C93.352 80.1087 93.3571 80.0537 93.3788 80.0048C93.401 79.9627 93.4323 79.9262 93.4702 79.8983C93.5082 79.8703 93.5518 79.8515 93.5979 79.8434C93.6674 79.8324 93.7382 79.8324 93.8078 79.8434C93.9298 79.8562 94.0506 79.8795 94.1689 79.913C94.3664 79.9715 94.5538 80.0612 94.7244 80.179C95.0145 80.3847 95.1318 80.5778 95.1133 80.5905C95.0948 80.6031 94.9436 80.4575 94.6565 80.2961C94.4881 80.2031 94.3086 80.1329 94.1226 80.0871C94.0141 80.0603 93.9036 80.0423 93.7923 80.0333C93.672 80.0333 93.5732 80.0333 93.5516 80.0903C93.53 80.1473 93.5516 80.122 93.5732 80.1536C93.6141 80.1872 93.6599 80.2139 93.709 80.2328C93.8092 80.2815 93.9123 80.3238 94.0176 80.3594C94.2004 80.4208 94.3885 80.4643 94.5794 80.4892C94.7667 80.4908 94.9536 80.5088 95.138 80.543Z" fill="#263238"/>
<path d="M95.0794 80.638C95.0608 80.638 94.9281 80.467 94.8571 80.1125C94.8221 79.903 94.8221 79.6889 94.8571 79.4793C94.8746 79.3551 94.9046 79.2331 94.9467 79.1153C94.9658 79.0369 95.0042 78.9649 95.0582 78.9062C95.1123 78.8474 95.1801 78.8039 95.2553 78.7797C95.3046 78.7733 95.3546 78.7815 95.3995 78.8034C95.4444 78.8253 95.4822 78.8599 95.5084 78.9032C95.5462 78.9641 95.5753 79.0301 95.5948 79.0995C95.6313 79.2236 95.649 79.3528 95.6473 79.4825C95.6469 79.6979 95.595 79.9099 95.496 80.0998C95.3232 80.4164 95.1071 80.524 95.101 80.505C95.2021 80.356 95.2938 80.2006 95.3757 80.0397C95.4485 79.8637 95.4822 79.6734 95.4744 79.4825C95.4701 79.3749 95.4515 79.2683 95.4189 79.1659C95.3849 79.0488 95.3263 78.957 95.2831 78.976C95.2399 78.995 95.1503 79.0868 95.1164 79.1913C95.0775 79.2941 95.0466 79.4 95.0238 79.5078C94.9888 79.6988 94.9805 79.8938 94.9991 80.0871C95.0207 80.429 95.1071 80.6253 95.0794 80.638Z" fill="#263238"/>
<path d="M49.2804 80.5429L43.9595 82.7241C43.9595 82.7241 44.7156 88.8242 43.7712 89.3244L38.8885 79.0773L47.0397 75.3292L49.2804 80.5429Z" fill="#FFDC64"/>
<g opacity="0.6">
<path d="M43.0119 79.2989C42.9378 79.2082 42.833 79.1496 42.7185 79.1349C42.604 79.1202 42.4883 79.1505 42.3947 79.2198C42.3072 79.2915 42.2501 79.395 42.2352 79.5088C42.2202 79.6225 42.2486 79.7379 42.3144 79.8307C42.3917 79.9227 42.4995 79.982 42.6169 79.9972C42.7343 80.0124 42.8531 79.9824 42.9502 79.913C43.0274 79.8266 43.0703 79.7137 43.0703 79.5965C43.0703 79.4793 43.0274 79.3663 42.9502 79.2799" fill="white"/>
</g>
<g opacity="0.6">
<path d="M38.8885 79.0773L39.7095 78.7006L44.0891 88.7736C44.0825 88.9018 44.0456 89.0264 43.9817 89.1367C43.9177 89.247 43.8285 89.3396 43.7218 89.4067L38.8885 79.0773Z" fill="white"/>
</g>
<path d="M44.086 82.8697C44.0335 82.8919 43.9039 82.645 43.6354 82.4677C43.3669 82.2904 43.1014 82.2524 43.1014 82.1955C43.1014 82.1385 43.4101 82.0847 43.7403 82.3063C44.0706 82.5279 44.1354 82.8602 44.086 82.8697Z" fill="#263238"/>
<path d="M44.1169 84.1645C44.0737 84.1961 43.8916 84.0157 43.6076 83.9365C43.3237 83.8574 43.0799 83.9112 43.0613 83.8574C43.0428 83.8036 43.3082 83.6485 43.6601 83.7498C44.0119 83.8511 44.1632 84.1423 44.1169 84.1645Z" fill="#263238"/>
<path d="M43.1076 85.3642C43.0768 85.3231 43.2928 85.1395 43.6231 85.1458C43.9533 85.1521 44.1601 85.3421 44.1292 85.3832C44.0984 85.4244 43.8885 85.3421 43.62 85.3389C43.3515 85.3357 43.1323 85.4117 43.1076 85.3642Z" fill="#263238"/>
<path d="M45.2434 82.2335C45.1879 82.2335 45.157 81.9707 45.015 81.689C44.8731 81.4072 44.6848 81.2268 44.7064 81.1825C44.728 81.1381 45.015 81.2711 45.1724 81.6003C45.3298 81.9296 45.2928 82.243 45.2434 82.2335Z" fill="#263238"/>
<g opacity="0.3">
<path d="M48.2249 80.9735L47.2773 81.3629L45.1138 76.2187L45.9533 75.8293L48.2249 80.9735Z" fill="black"/>
</g>
<path d="M46.2959 81.7744C46.1788 81.6231 46.1022 81.443 46.0737 81.2521C46.0258 81.0446 46.002 80.8321 46.0027 80.6189C46.0034 80.4951 46.0117 80.3714 46.0274 80.2486C46.0335 80.1754 46.0512 80.1038 46.0798 80.0365C46.1 79.9866 46.1359 79.9451 46.1818 79.9187C46.2277 79.8923 46.2809 79.8825 46.3329 79.8908C46.3785 79.9017 46.421 79.923 46.4574 79.9531C46.4937 79.9833 46.5229 80.0215 46.5428 80.065C46.5736 80.1296 46.5934 80.1992 46.6014 80.2707C46.622 80.3941 46.6323 80.5191 46.6323 80.6443C46.6316 80.8593 46.5983 81.0729 46.5335 81.2774C46.4899 81.467 46.3921 81.639 46.2527 81.7712C46.2249 81.7554 46.3298 81.5686 46.4039 81.2394C46.4464 81.0484 46.465 80.8527 46.4595 80.6569C46.4566 80.543 46.4431 80.4296 46.4193 80.3182C46.4008 80.1948 46.3607 80.0998 46.302 80.0934C46.2434 80.0871 46.2712 80.0934 46.2496 80.1283C46.23 80.179 46.2176 80.2323 46.2125 80.2866C46.1929 80.4006 46.1805 80.5159 46.1755 80.6316C46.1674 80.8284 46.1777 81.0256 46.2064 81.2204C46.2494 81.4026 46.2793 81.5877 46.2959 81.7744Z" fill="#263238"/>
<path d="M46.2095 81.7396C46.194 81.7396 46.3267 81.5433 46.6415 81.3787C46.8269 81.2853 47.0261 81.2243 47.231 81.1983C47.352 81.1839 47.4743 81.1839 47.5952 81.1983C47.6745 81.1959 47.753 81.2145 47.8233 81.2522C47.8935 81.2899 47.9532 81.3454 47.9965 81.4135C48.0153 81.4602 48.021 81.5114 48.0128 81.5612C48.0046 81.6111 47.9829 81.6575 47.9502 81.6953C47.9021 81.7492 47.8471 81.796 47.7866 81.8346C47.6808 81.9038 47.5652 81.9561 47.444 81.9897C47.2427 82.0472 47.0306 82.0526 46.8267 82.0055C46.4749 81.92 46.3236 81.7364 46.3391 81.7238C46.5062 81.7814 46.6762 81.83 46.8483 81.8694C47.0339 81.8952 47.2227 81.8778 47.4008 81.8187C47.5036 81.7856 47.6013 81.7376 47.6909 81.6763C47.7897 81.6098 47.8607 81.5307 47.8298 81.4927C47.7995 81.4573 47.7619 81.4292 47.7198 81.4106C47.6776 81.392 47.6319 81.3833 47.586 81.385C47.4751 81.374 47.3635 81.374 47.2527 81.385C47.0645 81.4019 46.8796 81.4455 46.7033 81.5148C46.3916 81.6256 46.228 81.7649 46.2095 81.7396Z" fill="#263238"/>
<path d="M85.6504 6.20147C84.8171 5.67281 83.6566 6.25212 82.7739 5.81209C82.2369 5.54618 81.9313 4.96687 81.4992 4.54584C81.1624 4.21835 80.7558 3.97577 80.3117 3.83731C79.8676 3.69886 79.3982 3.66831 78.9406 3.74811C78.0857 3.93488 77.4684 4.25144 77.1382 5.084C76.5425 4.48253 75.1444 5.084 74.524 5.83425C73.9036 6.58451 73.7647 7.52786 73.7647 8.52187C73.7441 10.2386 74.0502 11.9429 74.666 13.5394C74.7215 13.6818 74.8234 13.8559 74.9746 13.8211C75.1258 13.7863 75.1351 13.6945 75.1752 13.5995C75.4838 12.7623 75.6911 11.8895 75.7925 11.0006C75.8937 10.1084 76.1709 9.24674 76.6073 8.46805C77.0826 7.7178 77.9005 7.13849 78.7678 7.2018C79.4132 7.28241 80.0107 7.59272 80.456 8.07868C80.919 8.5377 81.2894 9.08535 81.7153 9.57919C82.118 10.0985 82.6517 10.4948 83.2585 10.7251C83.5634 10.8352 83.8928 10.8531 84.2074 10.7768C84.522 10.7005 84.8086 10.5331 85.0332 10.2946C85.4467 9.78812 85.3603 8.88591 84.7832 8.58835C85.0722 8.63749 85.369 8.58223 85.6227 8.43199C85.8765 8.28175 86.0715 8.04584 86.1746 7.76452C86.2777 7.48321 86.2824 7.17392 86.1879 6.88944C86.0935 6.60496 85.9057 6.36292 85.6566 6.20463L85.6504 6.20147Z" fill="#263238"/>
<path d="M79.0116 20.4151L79.3974 18.5442C79.3974 18.5442 81.8912 18.7184 82.4622 16.2555C82.74 15.0652 83.1165 12.5675 83.4313 10.3041C83.5939 9.12973 83.3198 7.93559 82.6633 6.95905C82.0068 5.9825 81.0161 5.29506 79.8882 5.03335L79.6567 4.97954C77.1166 4.54901 75.3357 6.5212 74.9931 9.136L73.0364 19.1552C72.8787 19.9651 73.0398 20.8061 73.4845 21.4947C73.9291 22.1832 74.6212 22.6634 75.4098 22.8305L75.3419 23.7802C76.9931 24.1252 78.669 22.1024 79.0116 20.4151Z" fill="#FFBE9D"/>
<path d="M79.4067 18.5442C78.2898 18.3084 77.2668 17.7364 76.4684 16.9012C76.4684 16.9012 76.8172 18.8513 79.2709 19.1837L79.4067 18.5442Z" fill="#EB996E"/>
<path d="M82.5486 12.061C82.5286 12.1529 82.4746 12.2332 82.3981 12.2852C82.3216 12.3371 82.2284 12.3566 82.1381 12.3396C82.0936 12.3327 82.0508 12.3167 82.0124 12.2927C81.9739 12.2687 81.9405 12.237 81.9141 12.1996C81.8876 12.1622 81.8687 12.1198 81.8584 12.0748C81.8482 12.0298 81.8467 11.9831 81.8542 11.9376C81.8742 11.8457 81.9282 11.7654 82.0047 11.7135C82.0812 11.6615 82.1744 11.642 82.2647 11.659C82.3092 11.6659 82.352 11.6819 82.3904 11.7059C82.4289 11.7299 82.4623 11.7616 82.4888 11.799C82.5152 11.8364 82.5341 11.8789 82.5444 11.9239C82.5547 11.9688 82.5561 12.0155 82.5486 12.061Z" fill="#263238"/>
<path d="M82.6535 11.3899C82.6011 11.4279 82.3819 11.1683 82.0116 11.0733C81.6412 10.9783 81.3295 11.1145 81.2986 11.0733C81.2678 11.0322 81.3449 10.9752 81.4838 10.915C81.6689 10.8383 81.8725 10.8218 82.0671 10.8675C82.2618 10.9152 82.4361 11.0263 82.564 11.1841C82.6597 11.2822 82.6782 11.374 82.6535 11.3899Z" fill="#263238"/>
<path d="M78.9746 11.2981C78.956 11.3901 78.9028 11.4709 78.8265 11.523C78.7503 11.5752 78.6571 11.5944 78.5672 11.5767C78.5227 11.5701 78.4799 11.5545 78.4413 11.5309C78.4027 11.5072 78.3691 11.4759 78.3424 11.4388C78.3156 11.4017 78.2964 11.3595 78.2857 11.3147C78.275 11.2699 78.2731 11.2234 78.2801 11.1778C78.29 11.131 78.3088 11.0867 78.3354 11.0473C78.362 11.008 78.3959 10.9744 78.4352 10.9486C78.4745 10.9227 78.5184 10.905 78.5643 10.8965C78.6102 10.8881 78.6574 10.889 78.703 10.8992C78.79 10.9162 78.8672 10.9674 78.9179 11.042C78.9687 11.1165 78.989 11.2084 78.9746 11.2981Z" fill="#263238"/>
<path d="M79.0116 10.6207C78.9591 10.6555 78.74 10.3991 78.3697 10.3041C77.9993 10.2091 77.6876 10.3453 77.6567 10.3041C77.6258 10.263 77.703 10.206 77.8419 10.1427C78.0274 10.0674 78.2309 10.052 78.4252 10.0983C78.6198 10.146 78.7942 10.2571 78.9221 10.4149C79.0116 10.513 79.0116 10.6048 79.0116 10.6207Z" fill="#263238"/>
<path d="M79.7215 13.7483C79.9276 13.7316 80.135 13.7411 80.3388 13.7768C80.4375 13.7768 80.5301 13.7768 80.561 13.7293C80.5935 13.6265 80.5935 13.5157 80.561 13.4128C80.524 13.1595 80.4838 12.8904 80.4437 12.6119C80.3227 11.9262 80.2546 11.2318 80.24 10.5352C80.4172 11.2085 80.5401 11.8957 80.6073 12.5897C80.6412 12.8683 80.6783 13.1374 80.7091 13.3938C80.7434 13.5246 80.7314 13.6637 80.6752 13.7863C80.654 13.8169 80.6263 13.8421 80.5942 13.8602C80.5622 13.8783 80.5265 13.8887 80.49 13.8908C80.4347 13.8978 80.3787 13.8978 80.3233 13.8908C80.1176 13.8697 79.9154 13.8218 79.7215 13.7483Z" fill="#263238"/>
<path d="M78.5764 13.7483C78.6382 13.7483 78.5456 14.1693 78.8264 14.5429C79.1073 14.9164 79.5425 14.9671 79.5332 15.0272C79.524 15.0874 79.4221 15.0842 79.24 15.0462C79.0039 14.9959 78.7928 14.8613 78.6443 14.6663C78.501 14.4789 78.4346 14.2416 78.4592 14.0047C78.4808 13.8401 78.5487 13.7483 78.5764 13.7483Z" fill="#263238"/>
<path d="M79.4653 8.68332C79.4036 8.77829 79.0456 8.64217 78.6011 8.59785C78.1567 8.55353 77.7771 8.59785 77.74 8.48389C77.7215 8.43324 77.8048 8.35093 77.9684 8.28445C78.1845 8.20593 78.4151 8.1788 78.6429 8.20513C78.8707 8.23145 79.0896 8.31054 79.2832 8.43641C79.4283 8.53771 79.49 8.63901 79.4653 8.68332Z" fill="#263238"/>
<path d="M82.7585 10.2661C82.6752 10.3389 82.4499 10.1902 82.1412 10.1142C81.8326 10.0382 81.561 10.0414 81.524 9.93691C81.5085 9.88626 81.5672 9.81029 81.6999 9.75647C81.8735 9.69387 82.0613 9.68573 82.2394 9.73309C82.4175 9.78045 82.5778 9.88117 82.6999 10.0224C82.7801 10.13 82.7956 10.225 82.7585 10.2661Z" fill="#263238"/>
<path d="M74.7956 11.01C74.7555 10.9847 73.2524 10.1268 72.9438 11.8267C72.6351 13.5267 74.3542 13.5077 74.3666 13.457C74.3789 13.4064 74.7956 11.01 74.7956 11.01Z" fill="#FFBE9D"/>
<path d="M73.9685 12.7131C73.9685 12.7131 73.9345 12.7131 73.882 12.7416C73.808 12.7584 73.7304 12.7448 73.666 12.7036C73.5721 12.613 73.5034 12.4984 73.4671 12.3715C73.4308 12.2447 73.428 12.1102 73.4592 11.9819C73.4813 11.8349 73.5363 11.6951 73.6197 11.5735C73.6446 11.5229 73.6813 11.4794 73.7266 11.4469C73.7718 11.4143 73.8241 11.3936 73.879 11.3867C73.9142 11.3836 73.9493 11.3938 73.9777 11.4154C74.0061 11.4369 74.0259 11.4684 74.0333 11.5039C74.0333 11.5545 74.0333 11.5862 74.0333 11.5925C74.0333 11.5988 74.0734 11.5703 74.0734 11.4975C74.0722 11.4531 74.0558 11.4106 74.0271 11.3772C74.0081 11.3548 73.985 11.3366 73.959 11.3235C73.933 11.3105 73.9048 11.3029 73.8759 11.3013C73.805 11.302 73.7355 11.3213 73.6739 11.3574C73.6124 11.3934 73.5608 11.4449 73.524 11.507C73.4266 11.6401 73.362 11.7955 73.3358 11.9597C73.2998 12.1099 73.3076 12.2676 73.358 12.4133C73.4085 12.559 73.4995 12.6864 73.6197 12.7796C73.662 12.8009 73.7084 12.8119 73.7555 12.8119C73.8026 12.8119 73.849 12.8009 73.8913 12.7796C73.9592 12.7543 73.9746 12.7163 73.9685 12.7131Z" fill="#EB996E"/>
<path d="M84.0609 9.90207C83.4965 9.91909 82.9361 9.79855 82.4259 9.55037C81.9157 9.30219 81.4701 8.93343 81.1258 8.47438C80.6536 7.84125 80.3634 6.99286 79.6783 6.575C79.4429 6.44787 79.1851 6.37034 78.9201 6.34696C78.6551 6.32358 78.3881 6.35484 78.1351 6.43888C77.6292 6.60876 77.1627 6.88353 76.7647 7.24611C76.953 8.60733 76.3326 9.93689 75.7277 11.1683C75.6746 11.3115 75.577 11.4328 75.4499 11.5134C75.2215 11.621 74.9561 11.4342 74.8326 11.2126C74.6519 10.8395 74.5811 10.4203 74.6289 10.0065C74.6548 9.06173 74.8646 8.13178 75.2462 7.27144C75.6344 6.41777 76.2564 5.69841 77.0363 5.20112C78.0435 4.60689 79.2358 4.43559 80.3634 4.72311C81.4843 5.01952 82.4854 5.67086 83.2245 6.5845C83.5846 6.99105 83.8412 7.48257 83.9714 8.01536" fill="#263238"/>
<path d="M86.2122 6.95801C86.2054 7.00801 86.1897 7.05629 86.1659 7.10047C86.0957 7.22942 85.9877 7.33243 85.8572 7.39487C85.65 7.49013 85.4185 7.51455 85.1967 7.46451C85.0582 7.43933 84.9226 7.399 84.7924 7.34422C84.6445 7.28063 84.5156 7.17795 84.419 7.04665C84.3642 6.97275 84.3265 6.88702 84.3089 6.79596C84.2912 6.70491 84.2941 6.61093 84.3171 6.52116C84.3513 6.42582 84.4113 6.34245 84.49 6.28079C84.5687 6.21912 84.6629 6.18171 84.7616 6.17294C84.8652 6.15682 84.9711 6.1666 85.0702 6.20143C85.1715 6.2399 85.2596 6.30817 85.3233 6.3977C85.3849 6.48895 85.4269 6.59257 85.4466 6.7017C85.4663 6.81083 85.4632 6.92301 85.4375 7.03082C85.4111 7.1464 85.3626 7.25546 85.2948 7.35165C85.227 7.44784 85.1412 7.52925 85.0424 7.59114C84.8402 7.72084 84.608 7.79295 84.3696 7.80007C83.8721 7.80235 83.3883 7.63287 82.9961 7.31889C82.6082 7.01594 82.2551 6.66865 81.9437 6.28373C81.6565 5.93076 81.3406 5.60352 80.9993 5.30556C80.6918 5.04392 80.3277 4.86156 79.9375 4.77373C79.5917 4.70571 79.2356 4.71652 78.8943 4.80539C78.3985 4.94131 77.9449 5.20502 77.5764 5.57147C77.475 5.67131 77.3792 5.77701 77.2894 5.88803C77.2277 5.96084 77.1937 6.00199 77.1937 5.99883C77.1937 5.99566 77.1937 5.99883 77.2123 5.96717C77.2314 5.93479 77.253 5.90408 77.2771 5.87537C77.3634 5.76427 77.4562 5.65856 77.5548 5.5588C77.9198 5.17701 78.3765 4.90075 78.8789 4.7579C79.2287 4.66393 79.5943 4.64988 79.9499 4.71675C80.3559 4.80702 80.7348 4.99592 81.0548 5.26757C81.3995 5.56833 81.7195 5.89761 82.0116 6.25208C82.3196 6.63208 82.6685 6.9751 83.0517 7.27458C83.4286 7.56993 83.8891 7.73109 84.3634 7.73359C84.5875 7.72667 84.8058 7.65895 84.9961 7.53732C85.0864 7.48166 85.165 7.40826 85.2275 7.32134C85.29 7.23442 85.3351 7.13569 85.3603 7.03082C85.3859 6.93167 85.3904 6.82801 85.3733 6.72693C85.3563 6.62585 85.3182 6.52975 85.2616 6.44518C85.2049 6.36966 85.1294 6.31125 85.043 6.27614C84.9566 6.24103 84.8626 6.23053 84.7708 6.24575C84.6844 6.25257 84.6016 6.28446 84.5322 6.33771C84.4628 6.39097 84.4096 6.46337 84.3789 6.54648C84.3586 6.62627 84.3558 6.70968 84.3707 6.7907C84.3857 6.87172 84.418 6.94833 84.4653 7.01499C84.5544 7.13964 84.675 7.23703 84.814 7.29673C84.9398 7.35279 85.0713 7.3942 85.206 7.42019C85.419 7.47058 85.642 7.45291 85.8449 7.36954C85.9725 7.31178 86.0801 7.21577 86.1535 7.09414C86.1998 7.00866 86.206 6.95485 86.2122 6.95801Z" fill="#455A64"/>
<path d="M73.9098 7.22077C74.0605 7.31975 74.2195 7.40451 74.3851 7.47402C74.5673 7.53409 74.7592 7.55669 74.9499 7.5405C75.1847 7.52048 75.4154 7.46611 75.6351 7.37905C76.033 7.21396 76.3677 6.92063 76.5888 6.54333C76.674 6.38266 76.7492 6.21666 76.8141 6.04633C76.8136 6.09695 76.8053 6.14717 76.7894 6.19511C76.7552 6.32741 76.7054 6.45497 76.6413 6.57498C76.4257 6.97757 76.0796 7.29006 75.6629 7.45819C75.4362 7.55076 75.1966 7.60527 74.953 7.61964C74.7527 7.631 74.5522 7.60085 74.3635 7.531C74.2391 7.48003 74.1227 7.41071 74.0178 7.32524C73.9438 7.26509 73.9067 7.2271 73.9098 7.22077Z" fill="#455A64"/>
<path d="M73.7154 8.46167C73.7154 8.46167 73.9036 8.53448 74.2184 8.5883C74.6272 8.66249 75.0479 8.62226 75.4363 8.47184C75.8247 8.32142 76.1663 8.06638 76.4252 7.73358C76.6258 7.48033 76.7061 7.29039 76.7184 7.29672C76.7308 7.30305 76.7184 7.34737 76.6721 7.43285C76.6149 7.55147 76.5478 7.6648 76.4715 7.77157C76.2164 8.12611 75.867 8.39769 75.4652 8.55377C75.0634 8.70986 74.6262 8.74383 74.2061 8.65161C74.0801 8.6256 73.957 8.58635 73.8388 8.53448C73.794 8.51749 73.7522 8.49288 73.7154 8.46167Z" fill="#455A64"/>
<path d="M77.4129 11.9502C77.4006 11.9502 77.3888 11.9452 77.3801 11.9363C77.3714 11.9274 77.3666 11.9153 77.3666 11.9027C77.3666 11.8901 77.3714 11.878 77.3801 11.8691C77.3888 11.8602 77.4006 11.8552 77.4129 11.8552C77.4187 11.8552 77.4245 11.8564 77.4298 11.8588C77.4351 11.8613 77.4399 11.8649 77.4437 11.8694C77.4475 11.8739 77.4503 11.8793 77.4519 11.885C77.4535 11.8908 77.4539 11.8968 77.453 11.9027C77.4531 11.9143 77.4491 11.9255 77.4417 11.9342C77.4343 11.943 77.4241 11.9487 77.4129 11.9502Z" fill="#EB996E"/>
<path d="M78.1567 11.947C78.1351 11.947 78.1166 11.9217 78.1166 11.8932C78.1164 11.8805 78.1206 11.868 78.1285 11.8582C78.1364 11.8483 78.1475 11.8417 78.1598 11.8394C78.1723 11.8417 78.1835 11.849 78.191 11.8596C78.1985 11.8702 78.2017 11.8834 78.1999 11.8964C78.1999 11.9249 78.1814 11.9502 78.1567 11.947Z" fill="#EB996E"/>
<path d="M78.6351 12.0452C78.6135 12.0452 78.598 12.0103 78.6011 11.9724C78.6042 11.9344 78.6258 11.9059 78.6505 11.9059C78.6752 11.9059 78.6875 11.9407 78.6845 11.9819C78.6814 12.023 78.6598 12.0483 78.6351 12.0452Z" fill="#EB996E"/>
<path d="M77.6629 12.482C77.6382 12.482 77.6227 12.4599 77.6258 12.444C77.6289 12.4282 77.6505 12.4219 77.6721 12.444C77.6937 12.4662 77.7122 12.4662 77.7091 12.4789C77.7061 12.4915 77.6845 12.482 77.6629 12.482Z" fill="#EB996E"/>
<path d="M78.3449 12.482C78.3332 12.4797 78.3228 12.4728 78.3158 12.4628C78.3089 12.4527 78.3061 12.4403 78.3079 12.4282C78.3079 12.3997 78.3326 12.3807 78.3573 12.3839C78.3685 12.3869 78.3782 12.3941 78.3845 12.404C78.3907 12.414 78.3932 12.426 78.3912 12.4377C78.3913 12.4438 78.39 12.4498 78.3877 12.4554C78.3853 12.461 78.3819 12.4661 78.3775 12.4702C78.3732 12.4744 78.368 12.4776 78.3624 12.4796C78.3568 12.4816 78.3509 12.4825 78.3449 12.482Z" fill="#EB996E"/>
<path d="M81.811 12.8493C81.805 12.8489 81.7992 12.8473 81.7939 12.8445C81.7886 12.8417 81.7839 12.8378 81.7801 12.833C81.7763 12.8282 81.7736 12.8227 81.772 12.8168C81.7704 12.8109 81.77 12.8047 81.7709 12.7986C81.7708 12.7866 81.7753 12.775 81.7833 12.7661C81.7913 12.7573 81.8023 12.752 81.8141 12.7512C81.8258 12.7527 81.8365 12.7589 81.844 12.7683C81.8514 12.7777 81.8551 12.7897 81.8542 12.8018C81.8542 12.8139 81.8498 12.8255 81.8417 12.8343C81.8337 12.8431 81.8227 12.8485 81.811 12.8493Z" fill="#EB996E"/>
<path d="M82.3017 12.9157C82.2896 12.912 82.2794 12.9038 82.2731 12.8926C82.2668 12.8814 82.2649 12.8682 82.2678 12.8556C82.2678 12.8271 82.2925 12.8049 82.3141 12.8081C82.3267 12.8111 82.3377 12.8191 82.3446 12.8304C82.3515 12.8416 82.3539 12.8552 82.3511 12.8682C82.3503 12.8811 82.3448 12.8932 82.3356 12.902C82.3264 12.9109 82.3143 12.9158 82.3017 12.9157Z" fill="#EB996E"/>
<path d="M81.382 12.7638C81.3716 12.763 81.3618 12.7584 81.3544 12.7509C81.347 12.7433 81.3426 12.7333 81.3419 12.7226C81.3434 12.7123 81.3487 12.7029 81.3567 12.6964C81.3648 12.6899 81.3749 12.6869 81.3851 12.6878C81.3902 12.6873 81.3953 12.688 81.4002 12.6897C81.4051 12.6914 81.4095 12.6942 81.4133 12.6977C81.4171 12.7013 81.4201 12.7056 81.4221 12.7105C81.4242 12.7153 81.4252 12.7205 81.4252 12.7258C81.4248 12.7312 81.4234 12.7365 81.421 12.7413C81.4186 12.7461 81.4153 12.7504 81.4113 12.754C81.4073 12.7575 81.4026 12.7602 81.3976 12.7619C81.3926 12.7635 81.3873 12.7642 81.382 12.7638Z" fill="#EB996E"/>
<path d="M81.632 13.3399C81.6259 13.3408 81.6197 13.3404 81.6137 13.3388C81.6078 13.3372 81.6022 13.3344 81.5973 13.3306C81.5924 13.3268 81.5883 13.322 81.5853 13.3165C81.5822 13.3111 81.5802 13.305 81.5795 13.2988C81.5774 13.2866 81.5798 13.2742 81.586 13.2637C81.5923 13.2532 81.602 13.2454 81.6134 13.2418C81.6252 13.2409 81.6369 13.2446 81.6461 13.2523C81.6553 13.2599 81.6613 13.2709 81.6628 13.2829C81.6657 13.2947 81.6642 13.3071 81.6584 13.3177C81.6527 13.3283 81.6432 13.3362 81.632 13.3399Z" fill="#EB996E"/>
<path d="M82.061 13.3495C82.0562 13.3477 82.0519 13.345 82.0482 13.3415C82.0445 13.3379 82.0415 13.3337 82.0395 13.3289C82.0375 13.3242 82.0364 13.319 82.0364 13.3139C82.0364 13.3087 82.0374 13.3036 82.0394 13.2988C82.0458 13.2913 82.0546 13.2862 82.0642 13.2844C82.0739 13.2827 82.0838 13.2843 82.0924 13.2891C82.101 13.2939 82.1078 13.3015 82.1116 13.3108C82.1154 13.32 82.1161 13.3303 82.1134 13.34C82.1107 13.3442 82.1071 13.3478 82.1029 13.3506C82.0987 13.3534 82.0941 13.3552 82.0892 13.3561C82.0843 13.357 82.0793 13.3569 82.0744 13.3557C82.0696 13.3546 82.065 13.3524 82.061 13.3495Z" fill="#EB996E"/>
<path d="M64.1136 52.771L59.5056 68.3237L45.8576 75.3292L48.802 82.3601L68.0426 74.9747L74.0487 56.0411L64.1136 52.771Z" fill="#263238"/>
<path d="M65.9006 18.9621L53.4131 27.0914C52.8043 27.4878 52.35 28.0904 52.1292 28.7945L48.2125 41.188L52.518 42.7486L57.0612 31.1593L68.3049 26.3823L65.9006 18.9621Z" fill="#FFDC64"/>
<path d="M79.3203 22.7672L79.6783 22.2607L79.0271 20.3328L77.2616 23.0774L76.7894 21.5801L73.2462 17.2527L71.7031 18.4081L65.8914 18.9621L65.9253 19.1267L64.8142 27.924L64.1383 37.3734L62.7834 42.0015L62.2124 42.6347C62.0426 42.8214 61.9205 43.0484 61.857 43.2953C61.7934 43.5421 61.7904 43.8013 61.8482 44.0497L61.8883 44.2143L76.1536 48.9628L77.2586 47.1932L81.6937 25.6448L79.3203 22.7672Z" fill="#FFDC64"/>
<path d="M93.4004 59.0452C93.2555 57.6394 92.7128 56.3077 91.8392 55.2142C90.9656 54.1208 89.7992 53.3133 88.4838 52.8913L76.2339 48.9342L61.8976 44.2111C61.0865 46.0867 60.7206 48.1328 60.8297 50.1815C61.0025 53.097 64.1075 55.8796 67.2124 56.6995L85.0208 61.3055L88.3788 79.3496L95.4498 78.7702L93.4004 59.0452Z" fill="#263238"/>
<path d="M85.1042 61.4131C85.0259 61.4092 84.9482 61.3965 84.8727 61.3751L84.2215 61.2264C83.6567 61.0934 82.8418 60.8876 81.8419 60.6217C79.8357 60.0931 77.0857 59.289 74.0086 58.5482C71.3829 57.8974 68.7988 57.0813 66.271 56.1044C65.3019 55.7277 64.5303 55.3921 63.9994 55.1547C63.734 55.0376 63.5303 54.9363 63.3821 54.8698C63.3105 54.8396 63.2414 54.8036 63.1754 54.7621C63.2507 54.7814 63.324 54.8079 63.3945 54.8413L64.0118 55.0977C64.5488 55.3193 65.3266 55.6359 66.2988 55.9999C68.837 56.9381 71.4231 57.7338 74.0456 58.3836C77.132 59.1212 79.8727 59.9443 81.8696 60.5014L84.2369 61.1567L84.8819 61.334C84.9578 61.3547 85.0321 61.3811 85.1042 61.4131Z" fill="#455A64"/>
<path d="M86.8418 59.2478C86.6954 59.7084 86.4435 60.1264 86.1072 60.4666C85.8119 60.8443 85.4317 61.143 84.9992 61.3372C84.9714 61.296 85.4838 60.9351 85.9899 60.3558C86.4961 59.7765 86.7986 59.2257 86.8418 59.2478Z" fill="#455A64"/>
<path d="M87.9004 60.9161C87.4675 61.1694 86.9864 61.3238 86.49 61.3688C86.001 61.4684 85.497 61.4597 85.0116 61.3435C85.0116 61.2928 85.6721 61.3245 86.4653 61.2074C87.2585 61.0902 87.885 60.8528 87.9004 60.9161Z" fill="#455A64"/>
<path d="M68.0302 46.2814C68.0302 46.2403 72.3512 47.5888 77.6227 49.2983C82.8943 51.0077 87.1906 52.4259 87.1659 52.4639C87.1412 52.5019 82.8449 51.1565 77.5734 49.4471C72.3018 47.7376 68.0179 46.3258 68.0302 46.2814Z" fill="#455A64"/>
<path d="M68.3018 25.4833C68.5179 25.1655 68.6893 24.8181 68.8111 24.4513C68.9353 24.0515 69.0141 23.6383 69.0457 23.2199C69.0913 22.7095 69.0611 22.1951 68.9562 21.694C68.8366 21.1983 68.6157 20.7343 68.308 20.3328C68.0542 20.0064 67.7459 19.7288 67.3975 19.5129C67.0629 19.3273 66.7152 19.1676 66.3574 19.0349C66.4623 19.0378 66.5662 19.0559 66.6661 19.0887C66.9391 19.1606 67.2024 19.267 67.45 19.4053C67.8231 19.6137 68.1532 19.8943 68.4222 20.2315C68.7499 20.6466 68.9838 21.1309 69.1074 21.6497C69.2202 22.169 69.2483 22.7038 69.1907 23.2325C69.1524 23.6652 69.059 24.0909 68.913 24.4988C68.8208 24.7743 68.6864 25.0329 68.5148 25.2649C68.3975 25.42 68.308 25.4896 68.3018 25.4833Z" fill="#263238"/>
<g opacity="0.3">
<path d="M64.8142 27.924C65.6321 27.7056 67.3204 26.7686 67.3204 26.7686C66.3049 29.5068 65.2124 32.7832 64.2587 35.5437C64.5364 32.9922 64.5364 30.4787 64.8142 27.924Z" fill="black"/>
</g>
<path d="M55.4347 29.6144C55.8034 29.7719 56.1311 30.0159 56.3915 30.3266C56.6888 30.601 56.9184 30.9438 57.0612 31.327C57.0211 31.3523 56.7248 30.9123 56.2773 30.4438C55.8297 29.9753 55.4069 29.6555 55.4347 29.6144Z" fill="#263238"/>
<path d="M56.4408 27.8987C56.7712 28.3731 57.0062 28.9102 57.1323 29.4786C57.2585 30.0471 57.2731 30.6356 57.1754 31.2099C57.1396 30.6421 57.0736 30.0768 56.9779 29.5163C56.8278 28.9675 56.6485 28.4274 56.4408 27.8987Z" fill="#263238"/>
<path d="M62.6846 35.4486C62.6846 35.4961 62.6846 35.5341 62.6537 35.5341C62.6229 35.5341 62.626 35.4961 62.626 35.4486C62.626 35.4012 62.626 35.3663 62.6537 35.3663C62.6815 35.3663 62.6846 35.4043 62.6846 35.4486Z" fill="#263238"/>
<path d="M77.2678 47.1836C77.2684 47.1195 77.2767 47.0557 77.2925 46.9937L77.3974 46.4555C77.4993 45.968 77.6351 45.3001 77.8049 44.4834L79.1382 37.978C79.6598 35.4455 80.1289 33.1536 80.4746 31.4695C80.6474 30.6559 80.7832 29.988 80.8912 29.5005L81.0116 28.9655C81.0251 28.9031 81.0426 28.8418 81.0641 28.7819C81.0663 28.8457 81.0601 28.9096 81.0456 28.9718C81.0209 29.1142 80.99 29.2884 80.953 29.5131C80.8635 30.0038 80.7369 30.6749 80.5857 31.4948C80.2771 33.1631 79.8172 35.4708 79.2956 38.0128C78.774 40.5548 78.2863 42.8499 77.916 44.5087C77.7277 45.3381 77.5734 46.0092 77.4592 46.4714C77.4036 46.6866 77.3604 46.8639 77.3265 47C77.3139 47.0634 77.2942 47.125 77.2678 47.1836Z" fill="#263238"/>
<path d="M84.2986 37.0948C84.2808 36.6229 84.3931 36.1555 84.6227 35.7462C84.8057 35.3118 85.1027 34.9381 85.4807 34.6667C85.5177 34.7047 85.0918 35.1448 84.7677 35.819C84.4437 36.4933 84.348 37.1043 84.2986 37.0948Z" fill="#263238"/>
<path d="M85.0208 37.864C84.8854 37.3218 84.8574 36.7572 84.9385 36.2036C85.0196 35.6501 85.2082 35.1189 85.493 34.6414C85.5393 34.6636 85.2245 35.3347 85.1011 36.2242C85.0465 36.769 85.0197 37.3164 85.0208 37.864Z" fill="#263238"/>
<path d="M99.9343 34.9928L97.5793 35.015L97.8725 35.781L99.9157 35.2872L99.9343 34.9928Z" fill="#FFBE9D"/>
<g opacity="0.3">
<path d="M79.7863 35.2461C79.7863 35.2461 81.3542 38.0571 81.3295 37.9843C81.4344 35.2999 81.4252 32.7389 80.8202 30.1241" fill="black"/>
</g>
<path d="M76.7956 21.6624C76.7956 21.6782 76.5826 21.8745 76.2246 22.2322C75.8666 22.5899 75.3759 23.1154 74.7339 23.6599L74.6629 23.72L74.6197 23.6377L73.9098 22.2892C73.3327 21.216 72.7864 20.26 72.3882 19.5699L71.9129 18.7373C71.8485 18.639 71.7967 18.5326 71.7586 18.4208C71.8394 18.5034 71.9099 18.5959 71.9685 18.6962C72.0919 18.8798 72.2771 19.1489 72.4808 19.4876C72.9067 20.165 73.4685 21.1147 74.0456 22.191C74.3018 22.6659 74.5394 23.1407 74.7493 23.5459L74.6351 23.5206C75.274 22.9951 75.7771 22.4759 76.1598 22.1435C76.3532 21.9589 76.5665 21.7974 76.7956 21.6624Z" fill="#263238"/>
<path d="M79.6011 22.4095C79.5543 22.5263 79.4874 22.6335 79.4036 22.726C79.2678 22.9254 79.0487 23.1945 78.8234 23.5206L78.7369 23.6409L78.6937 23.5016C78.6042 23.2167 78.5116 22.9096 78.4098 22.5867L78.2277 21.9536L78.3635 21.9821C78.0317 22.4334 77.6653 22.8568 77.2678 23.2483C77.5554 22.7653 77.8805 22.3069 78.24 21.8776L78.3295 21.7605L78.3758 21.9061L78.5641 22.5171C78.6567 22.8379 78.7462 23.1418 78.8326 23.4288L78.703 23.4098C78.9499 23.0932 79.1783 22.8305 79.3357 22.6469C79.4931 22.4633 79.5857 22.4 79.6011 22.4095Z" fill="#263238"/>
<path d="M77.2678 23.2166C77.0976 22.9824 76.9911 22.706 76.9592 22.4157C76.8746 22.1445 76.8218 21.864 76.8018 21.58C76.971 21.8136 77.0774 22.0887 77.1104 22.3778C77.1933 22.6505 77.2461 22.9319 77.2678 23.2166Z" fill="#263238"/>
<path d="M74.8635 45.642C74.8635 45.642 75.0363 45.7433 75.1721 46.0313C75.258 46.2194 75.3009 46.4251 75.2977 46.6328C75.2944 46.8404 75.2451 47.0446 75.1535 47.2298C75.0619 47.415 74.9304 47.5763 74.7689 47.7016C74.6074 47.8269 74.4202 47.9128 74.2215 47.9529C74.0626 48.0052 73.8907 47.9973 73.737 47.9307C73.737 47.9054 73.9222 47.9307 74.1938 47.8421C74.369 47.7925 74.5322 47.706 74.673 47.588C74.8137 47.47 74.9289 47.3231 75.0111 47.1569C75.0933 46.9906 75.1408 46.8085 75.1504 46.6223C75.1601 46.4362 75.1318 46.25 75.0672 46.0757C74.9684 45.8002 74.8419 45.661 74.8635 45.642Z" fill="#263238"/>
<path d="M77.6659 23.6409C77.6734 23.7156 77.6734 23.7909 77.6659 23.8656C77.6659 24.0302 77.6659 24.2455 77.6443 24.4988C77.6258 25.0591 77.5795 25.8695 77.5055 26.8698C77.3635 28.8705 77.0888 31.6182 76.632 34.6604C76.1752 37.7026 75.6197 40.4029 75.1629 42.3529C74.9376 43.3311 74.74 44.1161 74.595 44.6575L74.4252 45.2906C74.4092 45.3648 74.3854 45.4369 74.3542 45.5058C74.3625 45.4311 74.3759 45.357 74.3944 45.2842C74.4283 45.1228 74.4777 44.9139 74.5333 44.6511C74.6629 44.1066 74.8419 43.3152 75.0549 42.3371C75.4808 40.3807 76.0147 37.6646 76.4746 34.6446C76.9345 31.6246 77.2215 28.8673 77.4005 26.8698C77.4869 25.8726 77.5487 25.0622 77.5888 24.5051C77.6104 24.2392 77.6258 24.0239 77.6413 23.872C77.641 23.7942 77.6493 23.7167 77.6659 23.6409Z" fill="#263238"/>
<path d="M76.1999 45.4964C75.9572 45.5893 75.7024 45.6447 75.4438 45.661C74.8288 45.7386 74.2069 45.7386 73.5919 45.661C72.9734 45.5841 72.3662 45.431 71.7833 45.2051C71.5376 45.1241 71.3047 45.0068 71.0919 44.8569C71.9115 45.144 72.7543 45.3559 73.6104 45.4901C74.4717 45.5717 75.3383 45.5738 76.1999 45.4964Z" fill="#263238"/>
<path d="M66.1691 43.7014C64.9374 43.3947 63.7813 42.8287 62.7741 42.0395C62.7988 41.9983 63.521 42.4479 64.4593 42.9037C65.3975 43.3596 66.1846 43.6571 66.1691 43.7014Z" fill="#263238"/>
<path d="M60.2402 39.6368C60.2402 39.6843 60.2247 39.7191 60.2031 39.7191C60.1815 39.7191 60.1692 39.6843 60.1692 39.6368C60.1692 39.5893 60.1846 39.5545 60.2031 39.5545C60.2217 39.5545 60.2402 39.5925 60.2402 39.6368Z" fill="#263238"/>
<path d="M59.6507 26.3507C59.6327 25.9489 59.6669 25.5465 59.7525 25.1541C59.7885 24.7534 59.8767 24.3594 60.0149 23.9828C60.0366 24.3846 60.0023 24.7875 59.913 25.1794C59.8771 25.5801 59.7888 25.9741 59.6507 26.3507Z" fill="white"/>
<path d="M64.9871 25.4295C64.7478 25.2883 64.5252 25.1194 64.3235 24.9261C63.9685 24.6444 63.6568 24.4418 63.6784 24.3975C63.9565 24.4602 64.2133 24.5979 64.4222 24.7963C64.7926 25.0876 65.0179 25.401 64.9871 25.4295Z" fill="white"/>
<path d="M55.2834 28.1804C55.0494 28.1325 54.8283 28.0331 54.6353 27.8891C54.2989 27.6865 54.0458 27.4934 54.0674 27.4523C54.3018 27.5005 54.5231 27.601 54.7155 27.7467C55.0519 27.9461 55.305 28.1392 55.2834 28.1804Z" fill="white"/>
<path d="M54.5952 32.188C54.2595 32.3828 53.8991 32.5288 53.5242 32.6217C53.166 32.7657 52.7899 32.8573 52.4069 32.894C52.7438 32.7026 53.104 32.5579 53.4779 32.4635C53.8362 32.3195 54.2122 32.2268 54.5952 32.188Z" fill="white"/>
<path d="M52.0181 39.0005C51.7337 38.324 51.6273 37.5829 51.7094 36.851C51.8013 37.2011 51.8602 37.5594 51.8853 37.921C51.9631 38.2757 52.0075 38.6371 52.0181 39.0005Z" fill="white"/>
<path d="M62.7618 28.0759C62.4024 28.2366 62.0308 28.3668 61.6507 28.4653C61.2876 28.6172 60.9129 28.7379 60.5303 28.8262C61.2023 28.3909 61.969 28.1332 62.7618 28.0759Z" fill="white"/>
<path d="M66.9901 21.3806C66.5156 21.3732 66.0435 21.3105 65.5827 21.1939C65.1116 21.1296 64.6489 21.0117 64.2031 20.8425C64.6788 20.8502 65.1521 20.9139 65.6136 21.0324C66.0836 21.0957 66.5453 21.2125 66.9901 21.3806Z" fill="white"/>
<path d="M70.2864 21.5389C70.3163 21.1836 70.4006 20.8353 70.5364 20.5069C70.619 20.1602 70.7544 19.829 70.9376 19.5256C70.9059 19.8806 70.8216 20.2286 70.6876 20.5576C70.6034 20.9037 70.4681 21.2347 70.2864 21.5389Z" fill="white"/>
<path d="M73.1938 25.2522C72.6143 24.7881 72.1509 24.1891 71.8419 23.5048C72.1026 23.7651 72.3373 24.0514 72.5425 24.3595C72.7893 24.633 73.0075 24.9322 73.1938 25.2522Z" fill="white"/>
<path d="M70.0611 28.4748C69.9543 28.1296 69.8981 27.7701 69.8944 27.408C69.8429 27.049 69.8429 26.6843 69.8944 26.3253C70.0041 26.6709 70.0603 27.0319 70.0611 27.3953C70.1164 27.7529 70.1164 28.1172 70.0611 28.4748Z" fill="white"/>
<path d="M66.6877 30.2665C66.6599 30.3013 66.379 30.0987 66.0889 29.8138C65.7988 29.5289 65.5673 29.2694 65.5982 29.2377C65.629 29.206 65.9068 29.4086 66.1969 29.6904C66.487 29.9721 66.7185 30.2349 66.6877 30.2665Z" fill="white"/>
<path d="M68.3883 32.6312C67.8977 32.9604 67.3197 33.1252 66.7339 33.1029C66.9966 32.9818 67.2721 32.8926 67.5549 32.837C67.8231 32.7326 68.1031 32.6634 68.3883 32.6312Z" fill="white"/>
<path d="M74.3296 30.7604C74.0648 30.1097 73.9742 29.3982 74.0672 28.6996C74.1538 29.035 74.2066 29.3787 74.2246 29.7252C74.2939 30.0657 74.329 30.4126 74.3296 30.7604Z" fill="white"/>
<path d="M73.0549 35.2745C72.8393 35.0206 72.6661 34.7318 72.5425 34.4198C72.371 34.1321 72.246 33.8178 72.1722 33.4891C72.3878 33.7431 72.5609 34.0319 72.6845 34.3439C72.856 34.6316 72.9811 34.9459 73.0549 35.2745Z" fill="white"/>
<path d="M68.4284 38.3262C68.4806 37.9175 68.5844 37.5174 68.737 37.136C68.8442 36.7367 69.0042 36.3544 69.2123 35.9995C69.1601 36.4083 69.0563 36.8084 68.9037 37.1898C68.7965 37.589 68.6365 37.9714 68.4284 38.3262Z" fill="white"/>
<path d="M66.4901 40.8904C66.3361 40.676 66.2239 40.433 66.1599 40.1749C66.0482 39.9343 65.9873 39.6722 65.9809 39.4057C66.1365 39.6191 66.2488 39.8624 66.3111 40.1211C66.4227 40.3618 66.4837 40.6239 66.4901 40.8904Z" fill="white"/>
<path d="M73.2771 40.425C72.9835 40.6724 72.6572 40.876 72.308 41.0297C71.9816 41.2309 71.6295 41.3844 71.2617 41.4855C71.5573 41.2394 71.8845 41.036 72.2339 40.8809C72.5593 40.68 72.9104 40.5265 73.2771 40.425Z" fill="white"/>
<path d="M68.9469 44.2839C68.849 44.0781 68.8003 43.8512 68.8049 43.6223C68.771 43.2487 68.7772 42.9448 68.8235 42.9417C68.9216 43.1485 68.9703 43.3764 68.9654 43.6064C68.9994 43.9768 68.9932 44.2807 68.9469 44.2839Z" fill="white"/>
<path d="M63.9408 44.3726C63.9068 44.3979 63.7 44.1256 63.6105 43.7204C63.5305 43.4815 63.5359 43.2212 63.626 42.986C63.6936 43.2133 63.7411 43.4464 63.7679 43.6825C63.8451 43.9069 63.9029 44.1378 63.9408 44.3726Z" fill="white"/>
<path d="M72.5302 46.2498C72.2924 46.415 72.0265 46.5332 71.7463 46.598C71.483 46.7127 71.2018 46.7781 70.916 46.7911C71.1525 46.6254 71.4175 46.5073 71.6969 46.4429C71.9612 46.3279 72.2434 46.2625 72.5302 46.2498Z" fill="white"/>
<path d="M76.2493 47.554C76.2061 47.554 76.1228 47.3071 76.0641 46.9874C76.0055 46.6676 75.99 46.3985 76.0333 46.3891C76.0765 46.3796 76.1598 46.6328 76.2215 46.9557C76.2833 47.2786 76.2956 47.5445 76.2493 47.554Z" fill="white"/>
<path d="M76.7277 43.1222C76.5543 42.9247 76.422 42.6932 76.3388 42.4416C76.2099 42.213 76.128 41.9599 76.0981 41.6976C76.2709 41.8942 76.4032 42.1247 76.4869 42.3751C76.6161 42.6046 76.698 42.8589 76.7277 43.1222Z" fill="white"/>
<path d="M78.1721 38.285C78.1968 38.323 77.9098 38.5446 77.5363 38.7789C77.3226 38.946 77.0779 39.0666 76.8172 39.1334C76.9962 38.9284 77.2121 38.7607 77.453 38.6396C77.6671 38.4731 77.9116 38.3525 78.1721 38.285Z" fill="white"/>
<path d="M78.2554 35.5088C78.0851 35.3004 77.9721 35.049 77.9283 34.7807C77.8359 34.5259 77.8135 34.25 77.8635 33.983C77.9685 34.2242 78.0422 34.4786 78.0826 34.7396C78.1751 34.9864 78.2333 35.2453 78.2554 35.5088Z" fill="white"/>
<path d="M79.7338 29.1332C79.5152 29.3949 79.2592 29.6211 78.9746 29.8044C78.7187 30.0291 78.4302 30.2117 78.1197 30.3457C78.3368 30.0816 78.593 29.854 78.8789 29.6714C79.133 29.4448 79.4219 29.263 79.7338 29.1332Z" fill="white"/>
<path d="M80.0024 27.1357C79.9777 27.1706 79.6937 26.9933 79.4375 26.6546C79.2614 26.4683 79.1525 26.226 79.1289 25.9676C79.1721 25.9486 79.3233 26.2399 79.5579 26.5533C79.7925 26.8667 80.0301 27.0977 80.0024 27.1357Z" fill="white"/>
<path d="M82.2647 31.5201C82.2444 31.1836 82.2767 30.8458 82.3604 30.5198C82.3932 30.1843 82.4776 29.8563 82.6104 29.5479C82.6328 29.8843 82.6015 30.2222 82.5178 30.5483C82.4848 30.884 82.3994 31.2122 82.2647 31.5201Z" fill="white"/>
<path d="M83.669 34.4831C83.3786 34.4582 83.0951 34.3788 82.8326 34.2489C82.5518 34.1702 82.288 34.0381 82.0548 33.8595C82.3449 33.8864 82.6281 33.9657 82.8912 34.0938C83.1712 34.1746 83.4346 34.3065 83.669 34.4831Z" fill="white"/>
<path d="M83.3079 38.8295C83.1262 38.6148 82.9859 38.3666 82.8943 38.0983C82.7545 37.8519 82.6633 37.5798 82.6258 37.2974C82.9481 37.7577 83.1798 38.2782 83.3079 38.8295Z" fill="white"/>
<path d="M87.9622 36.4047C87.743 36.7118 87.4982 36.9988 87.2307 37.2625C87.0018 37.5642 86.7477 37.8449 86.4714 38.1014C86.622 37.7452 86.839 37.4226 87.1103 37.1517C87.3433 36.8474 87.6328 36.5934 87.9622 36.4047Z" fill="white"/>
<path d="M90.8294 37.0789C90.5723 36.9078 90.3449 36.6938 90.1566 36.4458C89.931 36.2301 89.7431 35.9763 89.601 35.6956C90.0873 36.0814 90.5049 36.5505 90.8356 37.0821L90.8294 37.0789Z" fill="white"/>
<path d="M96.8139 28.9591V27.1705H95.8973L97.3047 25.1477L98.7121 27.1705H97.8294V28.9591H96.8139Z" fill="#FFDC64"/>
<path d="M94.9374 30.485V29.2346H94.2954L95.2831 27.8195L96.2676 29.2346H95.6504V30.485H94.9374Z" fill="#FFDC64"/>
<path d="M83.1566 78.9222C83.1067 78.9335 83.0562 78.9419 83.0054 78.9475L82.5517 79.0076C82.3511 79.0266 82.1042 79.0615 81.8141 79.1153C81.5239 79.1691 81.1968 79.2166 80.8141 79.3052C77.1883 80.0846 73.8234 81.8206 71.0518 84.3417C69.7487 85.5382 68.6005 86.901 67.6352 88.3969C65.3874 91.8837 64.1679 95.9615 64.1229 100.141V100.42L63.9778 100.186C63.1781 98.9308 62.1713 97.8285 61.0025 96.9283C57.1137 93.9367 52.2279 92.8383 48.0952 93.56L47.3298 93.7246C47.2027 93.7472 47.0777 93.7811 46.9564 93.8259L46.5891 93.9462C46.3483 94.0317 46.0983 94.0919 45.87 94.1963L45.1786 94.5129C44.9505 94.612 44.7279 94.724 44.5119 94.8484L43.8669 95.1998L43.2496 95.5924C43.0468 95.7171 42.8511 95.8534 42.6632 96.0007C41.2581 97.0497 40.0183 98.3138 38.9873 99.7488C38.1389 100.934 37.4147 102.207 36.8268 103.548L36.4657 104.412C36.3577 104.69 36.2651 104.966 36.1725 105.229C35.975 105.748 35.8639 106.242 35.7157 106.675C35.4812 107.558 35.3207 108.258 35.2404 108.727C35.1972 108.958 35.1633 109.138 35.1386 109.265C35.1139 109.391 35.0984 109.448 35.0984 109.448C35.1032 109.386 35.1115 109.323 35.1231 109.262C35.1417 109.135 35.1725 108.945 35.2096 108.72C35.3251 108.026 35.4745 107.338 35.6571 106.659C35.7867 106.219 35.904 105.71 36.0984 105.2C36.191 104.94 36.2805 104.662 36.3886 104.38L36.7466 103.51C37.3319 102.158 38.0562 100.874 38.9071 99.6792C39.9421 98.2236 41.1916 96.942 42.6107 95.8804C42.7996 95.7321 42.9964 95.5947 43.2002 95.4689L43.8175 95.0669L44.4687 94.7123C44.6858 94.5849 44.9105 94.4718 45.1416 94.3736L45.8391 94.057C46.0706 93.9494 46.3237 93.8893 46.5675 93.8006L46.9378 93.6803C47.0612 93.6344 47.1883 93.5995 47.3175 93.5759L48.0922 93.4081C52.2711 92.6705 57.1908 93.7721 61.1198 96.7953C62.304 97.7072 63.3235 98.8247 64.1321 100.097L63.9871 100.138C64.0325 95.9277 65.2664 91.8209 67.5395 88.3146C68.5128 86.8109 69.6716 85.4425 70.987 84.2436C72.1256 83.2134 73.367 82.3093 74.6907 81.5465C76.5995 80.4531 78.6637 79.6734 80.8079 79.2356C81.1844 79.1501 81.5209 79.1026 81.8141 79.0583C82.1073 79.014 82.3542 78.9792 82.5548 78.9633L83.0085 78.919C83.1042 78.9222 83.1566 78.9222 83.1566 78.9222Z" fill="#263238"/>
<path d="M132.394 81.6827H111.329V136.344H132.394V81.6827Z" fill="#FFDC64"/>
<g opacity="0.3">
<path d="M132.394 81.6827H111.329V136.344H132.394V81.6827Z" fill="black"/>
</g>
<path d="M127.246 81.6827H106.181V136.344H127.246V81.6827Z" fill="#FFDC64"/>
<g opacity="0.4">
<path d="M115.872 103.56V106.583H115.311L113.842 104.747V106.583H113.169V103.56H113.734L115.2 105.396V103.56H115.872Z" fill="white"/>
<path d="M116.323 104.057C116.301 103.891 116.329 103.721 116.403 103.571C116.478 103.422 116.595 103.299 116.739 103.219C116.884 103.139 117.048 103.107 117.211 103.125C117.374 103.144 117.527 103.213 117.651 103.324C117.774 103.435 117.862 103.581 117.902 103.744C117.942 103.907 117.933 104.079 117.876 104.236C117.818 104.394 117.715 104.529 117.581 104.625C117.446 104.721 117.286 104.773 117.122 104.773C117.023 104.783 116.924 104.772 116.829 104.741C116.734 104.71 116.647 104.659 116.572 104.592C116.497 104.525 116.436 104.443 116.394 104.351C116.351 104.259 116.327 104.159 116.323 104.057ZM117.471 104.057C117.471 103.962 117.434 103.87 117.368 103.802C117.302 103.734 117.213 103.696 117.119 103.696C117.026 103.696 116.936 103.734 116.87 103.802C116.804 103.87 116.767 103.962 116.767 104.057C116.767 104.153 116.804 104.245 116.87 104.312C116.936 104.38 117.026 104.418 117.119 104.418C117.213 104.418 117.302 104.38 117.368 104.312C117.434 104.245 117.471 104.153 117.471 104.057Z" fill="white"/>
<path d="M120.829 105.947H120.351V106.58H119.684V105.947H118.098V105.476L119.487 103.56H120.203L118.916 105.377H119.706V104.811H120.351V105.377H120.829V105.947Z" fill="white"/>
</g>
<path d="M132.406 84.1898C132.361 84.302 132.303 84.4083 132.233 84.5064L131.712 85.3484C131.267 86.0575 130.644 87.0262 129.943 88.093C129.243 89.1599 128.601 90.119 128.128 90.806C127.89 91.1903 127.62 91.5535 127.323 91.8918C127.334 91.8628 127.349 91.8352 127.366 91.8095L127.505 91.5784C127.65 91.3505 127.814 91.0719 128.033 90.7395C128.483 90.0367 129.11 89.0649 129.811 88.0012C130.511 86.9376 131.15 85.9752 131.619 85.2851L132.181 84.4716C132.245 84.3687 132.32 84.2741 132.406 84.1898Z" fill="#FFDC64"/>
<path d="M132.406 94.0349C132.361 94.1471 132.303 94.2534 132.233 94.3515L131.712 95.1935C131.267 95.9026 130.644 96.8713 129.943 97.9381C129.243 99.0049 128.601 99.961 128.128 100.651C127.89 101.035 127.62 101.399 127.323 101.737C127.335 101.707 127.349 101.678 127.366 101.651C127.409 101.582 127.456 101.509 127.505 101.42C127.65 101.196 127.814 100.914 128.033 100.585C128.483 99.8787 129.11 98.91 129.811 97.8463C130.511 96.7827 131.15 95.8203 131.619 95.1302L132.181 94.3167C132.245 94.2138 132.32 94.1192 132.406 94.0349Z" fill="#FFDC64"/>
<path d="M132.406 103.877C132.361 103.989 132.303 104.095 132.233 104.193L131.712 105.035C131.267 105.741 130.644 106.713 129.943 107.78C129.243 108.847 128.601 109.803 128.128 110.49C127.89 110.875 127.621 111.24 127.323 111.579C127.335 111.549 127.349 111.52 127.366 111.493L127.505 111.262L128.033 110.427C128.483 109.721 129.11 108.752 129.811 107.685C130.511 106.618 131.15 105.662 131.619 104.969L132.181 104.159C132.246 104.056 132.321 103.962 132.406 103.877Z" fill="#FFDC64"/>
<path d="M132.406 113.722C132.361 113.834 132.303 113.94 132.233 114.038L131.712 114.881C131.267 115.586 130.644 116.558 129.943 117.622C129.243 118.686 128.601 119.648 128.128 120.335C127.891 120.72 127.621 121.083 127.323 121.421C127.336 121.393 127.35 121.365 127.366 121.338C127.409 121.269 127.456 121.193 127.505 121.107L128.033 120.272C128.483 119.566 129.11 118.597 129.811 117.53C130.511 116.463 131.15 115.504 131.619 114.814L132.181 114.001C132.245 113.899 132.321 113.805 132.406 113.722Z" fill="#FFDC64"/>
<path d="M132.406 123.567C132.361 123.679 132.303 123.786 132.233 123.884L131.712 124.729C131.267 125.435 130.644 126.407 129.943 127.47C129.243 128.534 128.601 129.496 128.128 130.183C127.89 130.568 127.62 130.931 127.323 131.269C127.336 131.241 127.35 131.213 127.366 131.187L127.505 130.956C127.65 130.728 127.814 130.449 128.033 130.117C128.483 129.414 129.11 128.445 129.811 127.378C130.511 126.312 131.15 125.352 131.619 124.662L132.181 123.849C132.245 123.746 132.32 123.651 132.406 123.567Z" fill="#FFDC64"/>
<path d="M132.406 133.409C132.133 133.975 131.811 134.515 131.446 135.023C131.124 135.562 130.758 136.072 130.351 136.546C130.625 135.98 130.947 135.44 131.314 134.932C131.633 134.392 131.999 133.882 132.406 133.409Z" fill="#FFDC64"/>
<path d="M103.021 91.895H81.956V136.344H103.021V91.895Z" fill="#FFDC64"/>
<g opacity="0.3">
<path d="M103.021 91.895H81.956V136.344H103.021V91.895Z" fill="black"/>
</g>
<path d="M97.8725 91.895H76.8079V136.344H97.8725V91.895Z" fill="#FFDC64"/>
<g opacity="0.4">
<path d="M86.5177 109.42V112.468H85.9591L84.49 110.616V112.468H83.8171V109.42H84.3789L85.8449 111.272V109.42H86.5177Z" fill="white"/>
<path d="M86.9683 109.92C86.9489 109.754 86.9791 109.587 87.0548 109.439C87.1305 109.291 87.2482 109.171 87.3923 109.093C87.5363 109.016 87.7 108.985 87.8615 109.005C88.023 109.025 88.1747 109.095 88.2966 109.205C88.4185 109.316 88.5047 109.462 88.5439 109.624C88.5831 109.786 88.5734 109.956 88.516 110.112C88.4586 110.268 88.3564 110.403 88.2227 110.498C88.0891 110.593 87.9304 110.644 87.7677 110.645C87.6681 110.655 87.5675 110.644 87.4722 110.612C87.3769 110.581 87.289 110.529 87.214 110.461C87.139 110.393 87.0785 110.31 87.0362 110.217C86.9939 110.124 86.9708 110.023 86.9683 109.92ZM88.1196 109.92C88.1196 109.824 88.0825 109.733 88.0165 109.665C87.9505 109.597 87.861 109.559 87.7677 109.559C87.6744 109.559 87.5849 109.597 87.5189 109.665C87.4529 109.733 87.4159 109.824 87.4159 109.92C87.4159 110.016 87.4529 110.108 87.5189 110.175C87.5849 110.243 87.6744 110.281 87.7677 110.281C87.861 110.281 87.9505 110.243 88.0165 110.175C88.0825 110.108 88.1196 110.016 88.1196 109.92Z" fill="white"/>
<path d="M91.0023 111.534C91.0023 112.05 90.6196 112.519 89.7677 112.519C89.371 112.529 88.9803 112.419 88.6443 112.202L88.9097 111.664C89.1552 111.845 89.4503 111.94 89.7523 111.937C90.0918 111.937 90.3016 111.794 90.3016 111.544C90.3016 111.294 90.1381 111.17 89.7523 111.17H89.4436V110.705L90.0609 109.996H88.8078V109.429H90.8696V109.888L90.206 110.67C90.4213 110.682 90.6239 110.779 90.7721 110.94C90.9202 111.1 91.0026 111.313 91.0023 111.534Z" fill="white"/>
</g>
<path d="M103.021 93.674C102.975 93.786 102.917 93.8922 102.848 93.9906L102.326 94.839C101.882 95.5512 101.258 96.5326 100.558 97.6057C99.8571 98.6789 99.2151 99.6475 98.7429 100.341C98.504 100.729 98.2346 101.096 97.9374 101.439C97.9474 101.409 97.962 101.38 97.9806 101.354C98.0238 101.284 98.067 101.208 98.1195 101.12L98.6472 100.278C99.0979 99.5652 99.7244 98.5902 100.425 97.5139C101.126 96.4376 101.761 95.4721 102.234 94.7756L102.795 93.9557C102.859 93.8527 102.935 93.7581 103.021 93.674Z" fill="#FFDC64"/>
<path d="M103.021 103.601C102.975 103.713 102.917 103.82 102.848 103.918L102.326 104.766C101.882 105.482 101.258 106.46 100.558 107.533C99.8571 108.606 99.2151 109.575 98.7429 110.268C98.505 110.657 98.2355 111.024 97.9374 111.367C97.9474 111.336 97.962 111.307 97.9806 111.281L98.1195 111.05C98.2614 110.819 98.4281 110.537 98.6472 110.205C99.0979 109.493 99.7244 108.518 100.425 107.441C101.126 106.365 101.761 105.4 102.234 104.703L102.795 103.883C102.859 103.78 102.935 103.686 103.021 103.601Z" fill="#FFDC64"/>
<path d="M103.021 113.529C102.975 113.641 102.917 113.747 102.848 113.845L102.326 114.697C101.882 115.409 101.258 116.387 100.558 117.461C99.8571 118.534 99.2151 119.502 98.7429 120.199C98.5046 120.586 98.2351 120.953 97.9374 121.294C97.9474 121.264 97.962 121.235 97.9806 121.209L98.1195 120.978C98.2614 120.746 98.4281 120.465 98.6472 120.132C99.0979 119.423 99.7244 118.445 100.425 117.369C101.126 116.292 101.761 115.327 102.234 114.631L102.795 113.811C102.86 113.708 102.936 113.614 103.021 113.529Z" fill="#FFDC64"/>
<path d="M103.021 123.456C102.975 123.568 102.917 123.674 102.848 123.773L102.326 124.624C101.882 125.337 101.258 126.315 100.558 127.391C99.8571 128.467 99.2151 129.433 98.7429 130.126C98.5046 130.514 98.2351 130.88 97.9374 131.222C97.9474 131.191 97.962 131.162 97.9806 131.136L98.1195 130.905C98.2614 130.677 98.4281 130.395 98.6472 130.06C99.0979 129.351 99.7244 128.372 100.425 127.299C101.126 126.226 101.761 125.254 102.234 124.558L102.795 123.738C102.86 123.636 102.936 123.541 103.021 123.456Z" fill="#FFDC64"/>
<path d="M103.021 133.384C102.747 133.954 102.426 134.498 102.061 135.011C101.739 135.555 101.373 136.07 100.965 136.549C101.238 135.979 101.56 135.435 101.925 134.922C102.247 134.378 102.613 133.863 103.021 133.384Z" fill="#FFDC64"/>
<path d="M73.4931 103.601H52.4285V136.343H73.4931V103.601Z" fill="#FFDC64"/>
<g opacity="0.3">
<path d="M73.4931 103.601H52.4285V136.343H73.4931V103.601Z" fill="black"/>
</g>
<path d="M68.345 103.601H47.2804V136.343H68.345V103.601Z" fill="#FFDC64"/>
<g opacity="0.4">
<path d="M56.9902 116.561V119.607H56.4285L54.9594 117.758V119.607H54.2865V116.561H54.8513L56.3174 118.41V116.561H56.9902Z" fill="white"/>
<path d="M57.4408 117.062C57.4201 116.895 57.4494 116.726 57.5247 116.577C57.6 116.428 57.7177 116.306 57.8623 116.227C58.0069 116.149 58.1714 116.117 58.3339 116.137C58.4965 116.156 58.6493 116.226 58.7722 116.337C58.895 116.448 58.982 116.595 59.0216 116.757C59.0611 116.92 59.0514 117.092 58.9936 117.249C58.9358 117.406 58.8328 117.541 58.6982 117.637C58.5636 117.732 58.4039 117.783 58.2402 117.783C58.1408 117.793 58.0404 117.782 57.9454 117.751C57.8503 117.719 57.7626 117.668 57.6876 117.601C57.6126 117.533 57.552 117.45 57.5096 117.357C57.4671 117.265 57.4437 117.164 57.4408 117.062ZM58.589 117.062C58.589 116.966 58.5519 116.874 58.4859 116.806C58.4199 116.739 58.3304 116.701 58.2371 116.701C58.1438 116.701 58.0543 116.739 57.9883 116.806C57.9223 116.874 57.8853 116.966 57.8853 117.062C57.8853 117.157 57.9223 117.249 57.9883 117.317C58.0543 117.384 58.1438 117.422 58.2371 117.422C58.3304 117.422 58.4199 117.384 58.4859 117.317C58.5519 117.249 58.589 117.157 58.589 117.062Z" fill="white"/>
<path d="M61.5859 119.034V119.607H59.3575V119.164L60.4964 118.052C60.7556 117.796 60.805 117.641 60.805 117.492C60.805 117.252 60.6445 117.112 60.3328 117.112C60.2122 117.107 60.0924 117.134 59.9845 117.189C59.8766 117.245 59.7841 117.327 59.7155 117.429L59.2186 117.096C59.3522 116.91 59.5292 116.76 59.7335 116.661C59.9377 116.562 60.1628 116.517 60.3883 116.53C61.0457 116.53 61.484 116.878 61.484 117.432C61.484 117.726 61.4038 117.999 60.9902 118.382L60.3112 119.043L61.5859 119.034Z" fill="white"/>
</g>
<path d="M73.4901 103.601C73.4445 103.713 73.3865 103.82 73.3172 103.918C73.1783 104.149 73.0086 104.431 72.7987 104.766C72.3512 105.482 71.7277 106.46 71.0271 107.533C70.3265 108.606 69.6845 109.575 69.2123 110.268C68.9759 110.657 68.7075 111.025 68.4099 111.367C68.4099 111.367 68.4099 111.335 68.4531 111.281L68.592 111.05C68.7339 110.82 68.9098 110.538 69.1197 110.205C69.5672 109.493 70.1938 108.518 70.8944 107.441C71.595 106.365 72.2339 105.4 72.703 104.703L73.2678 103.883C73.3311 103.781 73.4057 103.686 73.4901 103.601Z" fill="#FFDC64"/>
<path d="M73.4901 113.529C73.4445 113.641 73.3865 113.747 73.3172 113.845L72.7987 114.697C72.3512 115.409 71.7277 116.387 71.0271 117.461C70.3265 118.534 69.6845 119.502 69.2123 120.199C68.9755 120.587 68.7071 120.953 68.4099 121.294C68.4099 121.294 68.4099 121.262 68.4531 121.209L68.592 120.978C68.7339 120.745 68.9098 120.464 69.1197 120.132C69.5672 119.423 70.1938 118.445 70.8944 117.369C71.595 116.292 72.2339 115.327 72.703 114.631L73.2678 113.811C73.3321 113.709 73.4066 113.615 73.4901 113.529Z" fill="#FFDC64"/>
<path d="M73.4901 123.456C73.4445 123.568 73.3865 123.674 73.3172 123.773L72.7987 124.624C72.3512 125.337 71.7277 126.315 71.0271 127.391C70.3265 128.467 69.6845 129.433 69.2123 130.126C68.9755 130.514 68.7071 130.88 68.4099 131.222C68.4099 131.222 68.4099 131.19 68.4531 131.136L68.592 130.905L69.1197 130.06C69.5672 129.351 70.1938 128.372 70.8944 127.299C71.595 126.226 72.2339 125.254 72.703 124.558L73.2678 123.738C73.3321 123.636 73.4066 123.542 73.4901 123.456Z" fill="#FFDC64"/>
<path d="M73.4901 133.384C73.2168 133.954 72.8956 134.498 72.5302 135.011C72.209 135.554 71.8435 136.069 71.4376 136.549C71.7109 135.979 72.0321 135.435 72.3975 134.922C72.7187 134.379 73.0842 133.864 73.4901 133.384Z" fill="#FFDC64"/>
<path d="M43.9625 113.529H22.8979V136.344H43.9625V113.529Z" fill="#FFDC64"/>
<g opacity="0.3">
<path d="M43.9625 113.529H22.8979V136.344H43.9625V113.529Z" fill="black"/>
</g>
<path d="M38.8144 113.529H17.7498V136.344H38.8144V113.529Z" fill="#FFDC64"/>
<g opacity="0.4">
<path d="M27.4689 123.197V126.242H26.9102L25.4411 124.393V126.242H24.759V123.197H25.3084L26.7744 125.045V123.197H27.4689Z" fill="white"/>
<path d="M27.9102 123.697C27.8895 123.53 27.9189 123.361 27.9944 123.212C28.07 123.062 28.1881 122.94 28.3331 122.862C28.478 122.783 28.6429 122.752 28.8056 122.772C28.9684 122.792 29.1213 122.863 29.2439 122.974C29.3665 123.086 29.453 123.233 29.4919 123.397C29.5307 123.56 29.5201 123.732 29.4613 123.888C29.4026 124.045 29.2986 124.18 29.1631 124.275C29.0277 124.37 28.8673 124.42 28.7034 124.419C28.6045 124.428 28.5048 124.416 28.4105 124.384C28.3162 124.352 28.2292 124.301 28.1549 124.233C28.0806 124.166 28.0206 124.083 27.9785 123.991C27.9364 123.899 27.9132 123.799 27.9102 123.697ZM29.0583 123.697C29.0583 123.625 29.0376 123.555 28.9988 123.496C28.96 123.437 28.9049 123.39 28.8404 123.363C28.776 123.336 28.705 123.329 28.6367 123.343C28.5684 123.357 28.5057 123.392 28.4566 123.443C28.4075 123.494 28.3743 123.558 28.361 123.628C28.3478 123.699 28.3552 123.771 28.3823 123.837C28.4094 123.903 28.455 123.959 28.5133 123.998C28.5715 124.038 28.6399 124.058 28.7096 124.058C28.7564 124.061 28.8032 124.053 28.847 124.036C28.8907 124.019 28.9304 123.992 28.9634 123.958C28.9964 123.924 29.0219 123.883 29.0383 123.838C29.0547 123.793 29.0615 123.745 29.0583 123.697Z" fill="white"/>
<path d="M31.009 123.197V126.242H30.3269V123.76H29.7374V123.197H31.009Z" fill="white"/>
</g>
<path d="M43.9626 113.529C43.917 113.641 43.859 113.747 43.7897 113.845L43.2681 114.697C42.8237 115.409 42.1971 116.387 41.4996 117.461C40.8021 118.534 40.157 119.502 39.6848 120.199C39.4465 120.586 39.177 120.953 38.8793 121.294C38.8893 121.264 38.9039 121.235 38.9225 121.209L39.0614 120.978C39.2033 120.746 39.37 120.465 39.5891 120.132C40.0398 119.423 40.6663 118.445 41.3638 117.369C42.0613 116.292 42.7033 115.327 43.1755 114.631L43.7373 113.811C43.8019 113.708 43.8775 113.614 43.9626 113.529Z" fill="#FFDC64"/>
<path d="M43.9626 123.456C43.917 123.568 43.859 123.674 43.7897 123.773L43.2681 124.624C42.8237 125.337 42.1971 126.315 41.4996 127.391C40.8021 128.467 40.157 129.433 39.6848 130.126C39.4465 130.514 39.177 130.88 38.8793 131.222C38.8893 131.191 38.9039 131.162 38.9225 131.136L39.0614 130.905C39.2033 130.677 39.37 130.395 39.5891 130.06C40.0398 129.351 40.6663 128.372 41.3638 127.299C42.0613 126.226 42.7033 125.254 43.1755 124.558L43.7373 123.738C43.8019 123.636 43.8775 123.541 43.9626 123.456Z" fill="#FFDC64"/>
<path d="M43.9626 133.384C43.6879 133.953 43.3668 134.497 43.0027 135.011C42.6811 135.555 42.3145 136.07 41.907 136.549C42.1803 135.979 42.5015 135.435 42.8669 134.922C43.1885 134.378 43.555 133.863 43.9626 133.384Z" fill="#FFDC64"/>
<path d="M142.32 136.347C142.32 136.391 111.348 136.429 73.1506 136.429C34.9534 136.429 3.97528 136.391 3.97528 136.347C3.97528 136.302 34.941 136.258 73.1475 136.258C111.354 136.258 142.32 136.299 142.32 136.347Z" fill="#263238"/>
</svg>
